<?xml version="1.0" encoding="utf-8"?>
<!-- Generator: Adobe Illustrator 24.1.1, SVG Export Plug-In . SVG Version: 6.00 Build 0)  -->
<svg version="1.1" id="Layer_1" xmlns="http://www.w3.org/2000/svg" xmlns:xlink="http://www.w3.org/1999/xlink" x="0px" y="0px"
	 viewBox="0 0 512 512" style="enable-background:new 0 0 512 512;" xml:space="preserve">
<style type="text/css">
	.st0{fill:#fff;}
</style>
<g id="XMLID_1_">
	<path id="XMLID_5_" class="st0" d="M256,0C114.5,0,0,114.5,0,256s114.5,256,256,256s256-114.5,256-256S397.5,0,256,0z M398.4,380.7
		c0,11.2-9.3,20.5-21.4,20.5h-243c-12.1,0-21.4-9.3-21.4-20.5V134.1c0-11.2,9.3-20.5,21.4-20.5h243c12.1,0,21.4,9.3,21.4,20.5V380.7
		L398.4,380.7z"/>
	<path id="XMLID_6_" class="st0" d="M305.3,221.6c-23.3,0-33.5,13-39.1,21.4l0,0l0,0l0,0v-18.6h-42.8c0.9,12.1,0,129.4,0,129.4h42.8
		v-72.6c0-3.7,0-7.4,1.9-10.2c2.8-7.4,10.2-15.8,22.3-15.8c15.8,0,21.4,12.1,21.4,29.8v69.8h42.8v-74.5
		C354.7,240.2,334.2,221.6,305.3,221.6z"/>
	<path id="XMLID_7_" class="st0" d="M177.8,162c-14.9,0-24.2,9.3-24.2,22.3c0,12.1,9.3,22.3,24.2,22.3l0,0
		c14.9,0,24.2-10.2,24.2-22.3C202,171.3,192.7,162,177.8,162z"/>
	<rect id="XMLID_8_" x="156.4" y="224.3" class="st0" width="42.8" height="129.4"/>
</g>
</svg>
