<svg xmlns="http://www.w3.org/2000/svg" xmlns:xlink="http://www.w3.org/1999/xlink" version="1.1" x="0px" y="0px" viewBox="0 0 40 50" enable-background="new 0 0 40 40" xml:space="preserve"><path d="M16.268,25.643l0.3-1.945c0.401-0.129,0.787-0.288,1.154-0.477l1.585,1.162c0.17,0.125,0.404,0.105,0.553-0.043l2.331-2.331  c0.148-0.147,0.167-0.383,0.043-0.552l-1.162-1.586c0.188-0.367,0.347-0.754,0.476-1.153l1.945-0.3  c0.207-0.032,0.359-0.211,0.359-0.421v-3.298c0-0.209-0.152-0.388-0.359-0.42l-1.945-0.3c-0.129-0.4-0.288-0.786-0.477-1.153  l1.163-1.586c0.124-0.169,0.105-0.403-0.043-0.552l-2.331-2.332c-0.148-0.147-0.383-0.167-0.553-0.042l-1.586,1.162  c-0.366-0.188-0.753-0.348-1.153-0.476l-0.3-1.945c-0.032-0.207-0.21-0.36-0.42-0.36H12.55c-0.21,0-0.388,0.153-0.42,0.36  l-0.3,1.945c-0.4,0.128-0.787,0.288-1.154,0.476L9.09,8.314C8.921,8.189,8.687,8.209,8.538,8.356l-2.331,2.332  c-0.148,0.148-0.166,0.383-0.043,0.552l1.162,1.586c-0.188,0.367-0.348,0.753-0.476,1.153l-1.945,0.3  c-0.207,0.033-0.36,0.211-0.36,0.42v3.298c0,0.21,0.153,0.388,0.36,0.421l1.945,0.3c0.128,0.4,0.288,0.786,0.476,1.153l-1.162,1.586  c-0.123,0.169-0.105,0.404,0.043,0.552l2.331,2.331c0.148,0.148,0.383,0.168,0.552,0.043l1.586-1.162  c0.367,0.188,0.754,0.348,1.154,0.477l0.3,1.945c0.032,0.206,0.21,0.359,0.42,0.359h3.298  C16.058,26.002,16.235,25.849,16.268,25.643z M9.557,16.349c0-2.563,2.078-4.643,4.643-4.643c2.563,0,4.642,2.079,4.642,4.643  c0,2.564-2.078,4.643-4.642,4.643C11.635,20.991,9.557,18.913,9.557,16.349z"/><path d="M34.909,30.119l-5.487-5.486c2.9-4.152,2.508-9.922-1.195-13.625c-1.809-1.809-4.153-2.879-6.674-3.079l1.698,1.698  c0.379,0.379,0.563,0.876,0.561,1.375c0.978,0.404,1.876,1.002,2.647,1.773c3.18,3.18,3.18,8.353,0,11.531  c-1.54,1.541-3.588,2.389-5.766,2.389c-1.047,0-2.062-0.2-3.006-0.574c-0.238,0.813-0.973,1.381-1.84,1.381h-0.912  c1.703,1.099,3.684,1.693,5.758,1.693c2.213,0,4.318-0.678,6.094-1.922l5.484,5.484c0.729,0.729,1.909,0.729,2.638,0  S35.638,30.848,34.909,30.119z"/><text x="0" y="55" fill="#000000" font-size="5px" font-weight="bold" font-family="'Helvetica Neue', Helvetica, Arial-Unicode, Arial, Sans-serif">Created by TkBt</text><text x="0" y="60" fill="#000000" font-size="5px" font-weight="bold" font-family="'Helvetica Neue', Helvetica, Arial-Unicode, Arial, Sans-serif">from the Noun Project</text></svg>