<svg xmlns="http://www.w3.org/2000/svg" data-name="Layer 1" viewBox="0 0 100 125" x="0px" y="0px"><title>08</title><path d="M24,6.5v8H9v79H91v-79H77v-8H62v8H39v-8Zm2,2H37v14H26Zm-15,83v-52H89v52Zm53-83H75v14H64Zm-2,8v8H77v-8H89v21H11v-21H24v8H39v-8Z"/><rect x="21.17" y="47" width="16" height="16"/><rect x="42.17" y="47" width="16" height="16"/><rect x="62.83" y="47" width="16" height="16"/><rect x="21.17" y="67" width="16" height="16"/><rect x="42.17" y="67" width="16" height="16"/><rect x="62.83" y="67" width="16" height="16"/><text x="0" y="115" fill="#000000" font-size="5px" font-weight="bold" font-family="'Helvetica Neue', Helvetica, Arial-Unicode, Arial, Sans-serif">Created by Popular</text><text x="0" y="120" fill="#000000" font-size="5px" font-weight="bold" font-family="'Helvetica Neue', Helvetica, Arial-Unicode, Arial, Sans-serif">from the Noun Project</text></svg>