<?xml version="1.0" encoding="UTF-8" standalone="no"?>
<!-- Created with Inkscape (http://www.inkscape.org/) -->

<svg
   width="1146.9641"
   height="885.56519"
   viewBox="0 0 1146.9641 885.56519"
   version="1.1"
   id="svg5"
   xml:space="preserve"
   inkscape:version="1.2.2 (732a01da63, 2022-12-09)"
   sodipodi:docname="tv-background.svg"
   xmlns:inkscape="http://www.inkscape.org/namespaces/inkscape"
   xmlns:sodipodi="http://sodipodi.sourceforge.net/DTD/sodipodi-0.dtd"
   xmlns="http://www.w3.org/2000/svg"
   xmlns:svg="http://www.w3.org/2000/svg"><sodipodi:namedview
     id="namedview7"
     pagecolor="#ffffff"
     bordercolor="#000000"
     borderopacity="0.25"
     inkscape:showpageshadow="2"
     inkscape:pageopacity="0.0"
     inkscape:pagecheckerboard="0"
     inkscape:deskcolor="#d1d1d1"
     inkscape:document-units="px"
     showgrid="false"
     inkscape:zoom="0.47584683"
     inkscape:cx="643.06408"
     inkscape:cy="556.9019"
     inkscape:window-width="2048"
     inkscape:window-height="1000"
     inkscape:window-x="-11"
     inkscape:window-y="-11"
     inkscape:window-maximized="1"
     inkscape:current-layer="layer2" /><defs
     id="defs2" /><g
     inkscape:groupmode="layer"
     id="layer2"
     inkscape:label="Layer 2"
     style="display:inline"
     transform="matrix(1.7468356,0,0,1.7468356,-541.94724,-581.13708)"><path
       id="rect386"
       style="display:inline;fill:#2b2525;fill-opacity:1;fill-rule:nonzero;stroke:none;stroke-width:0;stroke-dasharray:none;stroke-opacity:0.222892"
       d="m 617.90234,332.75 c -30.45302,0.20717 -61.35466,0.87521 -93.06445,2.03516 -62.95034,2.30272 -121.99344,6.29538 -174.67578,10.64843 -17.60237,1.4554 -33.08348,17.5848 -34.02149,35.14844 0,0 -1.04681,18.54294 -2.29687,47.30469 -1.27546,29.34646 -2.60938,66.65504 -3.23047,108.66601 -0.62942,42.57418 -0.46709,85.34252 0.60547,130.49805 1.06435,44.8099 2.91092,86.96592 4.92187,124.67188 0.93801,17.56365 16.41912,33.69108 34.02149,35.14648 0,0 25.89043,2.26679 66.16016,4.97266 41.09583,2.76137 93.4218,5.64834 152.48242,6.99414 59.83412,1.36343 120.02331,1.01259 183.4414,-1.3086 62.94722,-2.30395 121.99094,-6.30008 174.66602,-10.6582 17.60236,-1.4554 33.08543,-17.58283 34.02344,-35.14648 0,0 1.0471,-18.54244 2.29883,-47.30274 1.27713,-29.34392 2.61375,-66.65344 3.23632,-108.66211 0.6309,-42.5714 0.47002,-85.34349 -0.60351,-130.49804 -1.06526,-44.80689 -2.91501,-86.9697 -4.93164,-124.67774 -0.93801,-17.56364 -16.42108,-33.69304 -34.02344,-35.14844 0,0 -25.88811,-2.26475 -66.15625,-4.96875 -41.09478,-2.75949 -93.4184,-5.64191 -152.47852,-6.98632 -29.91687,-0.68102 -59.92197,-0.93569 -90.375,-0.72852 z m 1.79102,23.99414 c 27.80936,-0.18919 55.20954,0.0422 82.5293,0.66406 53.93304,1.22771 101.71684,3.86092 139.24414,6.38086 36.77242,2.46926 60.41211,4.53711 60.41211,4.53711 16.07428,1.32905 30.21178,16.05874 31.06836,32.09766 1.84157,34.43455 3.53112,72.93834 4.5039,113.85547 0.98034,41.23461 1.12691,80.29225 0.55078,119.16797 -0.56852,38.36183 -1.78685,72.43198 -2.95312,99.22851 -1.14307,26.26358 -2.10156,43.19727 -2.10156,43.19727 -0.85658,16.03892 -14.99408,30.76665 -31.06836,32.0957 -48.1023,3.97978 -102.02121,7.62847 -159.50391,9.73242 -57.9127,2.11968 -112.87577,2.43843 -167.51562,1.19336 -53.93351,-1.22897 -101.71783,-3.86311 -139.2461,-6.38476 -36.77387,-2.47097 -60.41601,-4.54102 -60.41601,-4.54102 -16.0743,-1.32905 -30.21178,-16.05678 -31.06836,-32.0957 -1.83639,-34.43264 -3.52219,-72.92778 -4.49414,-113.84766 -0.97945,-41.23551 -1.12752,-80.29168 -0.55274,-119.16992 0.56717,-38.36394 1.78449,-72.43552 2.94922,-99.23438 1.14154,-26.26489 2.09766,-43.19726 2.09766,-43.19726 0.85658,-16.03892 14.99406,-30.76861 31.06836,-32.09766 48.10892,-3.97516 102.02616,-7.61983 159.51171,-9.72265 28.95703,-1.05926 57.17501,-1.67019 84.98438,-1.85938 z"
       sodipodi:insensitive="true" /></g></svg>
