<?xml version="1.0" encoding="UTF-8" standalone="no"?>
<!-- Created with Inkscape (http://www.inkscape.org/) -->

<svg
   width="1115.1519"
   height="876.44525"
   viewBox="0 0 1115.1519 876.44525"
   version="1.1"
   id="svg5"
   xml:space="preserve"
   inkscape:version="1.2.2 (732a01da63, 2022-12-09)"
   sodipodi:docname="tv-background.svg"
   xmlns:inkscape="http://www.inkscape.org/namespaces/inkscape"
   xmlns:sodipodi="http://sodipodi.sourceforge.net/DTD/sodipodi-0.dtd"
   xmlns="http://www.w3.org/2000/svg"
   xmlns:svg="http://www.w3.org/2000/svg"><sodipodi:namedview
     id="namedview7"
     pagecolor="#ffffff"
     bordercolor="#000000"
     borderopacity="0.25"
     inkscape:showpageshadow="2"
     inkscape:pageopacity="0.0"
     inkscape:pagecheckerboard="0"
     inkscape:deskcolor="#d1d1d1"
     inkscape:document-units="px"
     showgrid="false"
     inkscape:zoom="0.47584683"
     inkscape:cx="643.06408"
     inkscape:cy="556.9019"
     inkscape:window-width="2048"
     inkscape:window-height="1000"
     inkscape:window-x="-11"
     inkscape:window-y="-11"
     inkscape:window-maximized="1"
     inkscape:current-layer="layer2" /><defs
     id="defs2"><filter
       y="-0.04189413"
       height="1.0837883"
       inkscape:menu-tooltip="Darkens the edge with an inner blur and adds a flexible glow"
       inkscape:menu="Shadows and Glows"
       inkscape:label="Dark and Glow"
       style="color-interpolation-filters:sRGB"
       id="filter8359"
       x="-0.032346245"
       width="1.0646925"><feGaussianBlur
         stdDeviation="8.8493183"
         result="result6"
         id="feGaussianBlur8349" /><feComposite
         result="result8"
         in="SourceGraphic"
         operator="atop"
         in2="result6"
         id="feComposite8351" /><feComposite
         result="result9"
         operator="over"
         in2="SourceAlpha"
         in="result8"
         id="feComposite8353" /><feColorMatrix
         values="1 0 0 0 0 0 1 0 0 0 0 0 1 0 0 0 0 0 1 0 "
         result="result10"
         id="feColorMatrix8355" /><feBlend
         in="result10"
         mode="normal"
         in2="result6"
         id="feBlend8357" /></filter></defs><g
     inkscape:groupmode="layer"
     id="layer2"
     inkscape:label="Layer 2"
     style="display:inline"
     transform="matrix(1.7468356,0,0,1.7468356,-557.85291,-589.18212)"><path
       id="path6914"
       style="display:inline;mix-blend-mode:normal;fill:#ffffff;fill-opacity:1;stroke:none;stroke-width:0;stroke-dasharray:none;stroke-opacity:0.222892;filter:url(#filter8359)"
       d="m 617.90211,332.75027 c -30.45303,0.20717 -61.35436,0.87498 -93.06415,2.03493 -62.95033,2.30272 -121.99307,6.29541 -174.67541,10.64846 -17.60237,1.4554 -33.08392,17.58352 -34.02193,35.14717 0,0 -1.04811,18.54355 -2.29817,47.30529 -1.27546,29.34647 -2.60761,66.65677 -3.2287,108.66774 -0.62942,42.57418 -0.46771,85.34175 0.60485,130.49729 1.06435,44.80989 2.91106,86.96571 4.92202,124.67166 0.93801,17.56365 16.41956,33.69177 34.02193,35.14717 0,0 25.8886,2.26635 66.15833,4.97222 41.09584,2.76138 93.42406,5.64666 152.48468,6.99246 59.83412,1.36342 120.02145,1.01477 183.43955,-1.30642 62.94721,-2.30396 121.99176,-6.30015 174.66684,-10.65826 17.60236,-1.4554 33.08515,-17.58352 34.02316,-35.14717 0,0 1.04888,-18.54254 2.30061,-47.30284 1.27714,-29.34393 2.61225,-66.65417 3.23482,-108.66285 0.6309,-42.57141 0.46869,-85.3415 -0.60484,-130.49606 -1.06526,-44.80688 -2.91396,-86.97219 -4.93059,-124.68023 -0.93801,-17.56365 -16.4208,-33.69177 -34.02316,-35.14717 0,0 -25.88651,-2.26455 -66.15465,-4.96855 -41.09478,-2.75949 -93.41967,-5.64314 -152.47979,-6.98756 -29.91687,-0.68101 -59.92238,-0.93445 -90.3754,-0.72728 z m 0.14815,1.81086 c 30.2355,-0.20569 60.02574,0.045 89.72892,0.72117 58.63827,1.33481 110.58884,4.19757 151.39009,6.93735 39.98051,2.68469 65.68326,4.93427 65.68326,4.93427 17.47663,1.445 32.8482,17.45798 33.77951,34.89617 2.00224,37.4387 3.83866,79.30204 4.89631,123.78888 1.06586,44.83202 1.22634,87.29698 0.59995,129.5643 -0.61812,41.70862 -1.94477,78.75227 -3.21278,107.88659 -1.24279,28.55487 -2.28348,46.96492 -2.28348,46.96492 -0.93131,17.43819 -16.30288,33.45116 -33.77951,34.89616 -52.29882,4.32699 -110.92159,8.29363 -173.41919,10.58113 -62.96511,2.3046 -122.72272,2.65153 -182.12945,1.29784 -58.63876,-1.33618 -110.59269,-4.2006 -151.39499,-6.94225 -39.98209,-2.68654 -65.68693,-4.93672 -65.68693,-4.93672 -17.47665,-1.445 -32.8482,-17.45797 -33.77951,-34.89616 -1.9966,-37.43663 -3.82977,-79.29049 -4.88652,-123.78032 -1.06489,-44.83299 -1.22487,-87.29667 -0.59994,-129.56675 0.61665,-41.7109 1.94031,-78.75463 3.20666,-107.89148 1.24113,-28.5563 2.2798,-46.96614 2.2798,-46.96614 0.93131,-17.43819 16.30286,-33.45117 33.77951,-34.89617 52.30603,-4.32196 110.92707,-8.28627 173.42776,-10.57255 31.48329,-1.15167 62.16502,-1.81454 92.40053,-2.02024 z"
       transform="matrix(0.91318892,0,0,0.91318843,55.432533,52.880485)" /></g></svg>
